<svg xmlns="http://www.w3.org/2000/svg" viewBox="0 0 64 64" role="img" aria-label="Document Archive">
  <defs>
    <linearGradient id="bg" x1="10" x2="54" y1="8" y2="58" gradientUnits="userSpaceOnUse">
      <stop stop-color="#2563eb"/>
      <stop offset="1" stop-color="#0f172a"/>
    </linearGradient>
    <linearGradient id="paper" x1="22" x2="44" y1="16" y2="49" gradientUnits="userSpaceOnUse">
      <stop stop-color="#ffffff"/>
      <stop offset="1" stop-color="#dbeafe"/>
    </linearGradient>
  </defs>
  <rect width="64" height="64" rx="16" fill="url(#bg)"/>
  <path d="M13 22.5c0-3 2.4-5.5 5.5-5.5h10.2c1.7 0 3.3.8 4.4 2.1l2.1 2.6h10.3c3.1 0 5.5 2.5 5.5 5.5v16.3c0 3-2.4 5.5-5.5 5.5h-27c-3.1 0-5.5-2.5-5.5-5.5v-21z" fill="#fbbf24"/>
  <path d="M18 28h28v15.5c0 1.4-1.1 2.5-2.5 2.5h-23c-1.4 0-2.5-1.1-2.5-2.5V28z" fill="#f59e0b"/>
  <path d="M24 13h14l8 8v24H24V13z" fill="url(#paper)" stroke="#bfdbfe" stroke-width="1.5"/>
  <path d="M38 13v8h8" fill="#93c5fd"/>
  <path d="M29 28h12M29 34h12M29 40h8" stroke="#1e3a8a" stroke-width="2.2" stroke-linecap="round"/>
</svg>
